%TF.GenerationSoftware,KiCad,Pcbnew,10.0.4*%
%TF.CreationDate,2026-07-23T16:22:15-07:00*%
%TF.ProjectId,NFCbusiness,4e464362-7573-4696-9e65-73732e6b6963,rev?*%
%TF.SameCoordinates,Original*%
%TF.FileFunction,Legend,Top*%
%TF.FilePolarity,Positive*%
%FSLAX46Y46*%
G04 Gerber Fmt 4.6, Leading zero omitted, Abs format (unit mm)*
G04 Created by KiCad (PCBNEW 10.0.4) date 2026-07-23 16:22:15*
%MOMM*%
%LPD*%
G01*
G04 APERTURE LIST*
%ADD10C,0.200000*%
%ADD11C,0.300000*%
%ADD12C,0.150000*%
%ADD13C,0.000000*%
%ADD14C,0.120000*%
G04 APERTURE END LIST*
D10*
X79029875Y-66156250D02*
X79029875Y-66156250D01*
G75*
G02*
X80029875Y-65156250I1000025J50D01*
G01*
X98021792Y-65156250D01*
G75*
G02*
X99021792Y-66156250I8J-999950D01*
G01*
X99021792Y-84000000D01*
G75*
G02*
X98021792Y-85000000I-999992J0D01*
G01*
X80029875Y-85000000D01*
G75*
G02*
X79029875Y-84000000I25J1000000D01*
G01*
X79029875Y-66156250D01*
D11*
X82500000Y-64178328D02*
X82500000Y-62678328D01*
X82500000Y-62678328D02*
X83357143Y-64178328D01*
X83357143Y-64178328D02*
X83357143Y-62678328D01*
X84571429Y-63392614D02*
X84071429Y-63392614D01*
X84071429Y-64178328D02*
X84071429Y-62678328D01*
X84071429Y-62678328D02*
X84785715Y-62678328D01*
X86214286Y-64035471D02*
X86142858Y-64106900D01*
X86142858Y-64106900D02*
X85928572Y-64178328D01*
X85928572Y-64178328D02*
X85785715Y-64178328D01*
X85785715Y-64178328D02*
X85571429Y-64106900D01*
X85571429Y-64106900D02*
X85428572Y-63964042D01*
X85428572Y-63964042D02*
X85357143Y-63821185D01*
X85357143Y-63821185D02*
X85285715Y-63535471D01*
X85285715Y-63535471D02*
X85285715Y-63321185D01*
X85285715Y-63321185D02*
X85357143Y-63035471D01*
X85357143Y-63035471D02*
X85428572Y-62892614D01*
X85428572Y-62892614D02*
X85571429Y-62749757D01*
X85571429Y-62749757D02*
X85785715Y-62678328D01*
X85785715Y-62678328D02*
X85928572Y-62678328D01*
X85928572Y-62678328D02*
X86142858Y-62749757D01*
X86142858Y-62749757D02*
X86214286Y-62821185D01*
X86500001Y-64321185D02*
X87642858Y-64321185D01*
X87785715Y-62678328D02*
X88642858Y-62678328D01*
X88214286Y-64178328D02*
X88214286Y-62678328D01*
X90000000Y-64178328D02*
X89500000Y-63464042D01*
X89142857Y-64178328D02*
X89142857Y-62678328D01*
X89142857Y-62678328D02*
X89714286Y-62678328D01*
X89714286Y-62678328D02*
X89857143Y-62749757D01*
X89857143Y-62749757D02*
X89928572Y-62821185D01*
X89928572Y-62821185D02*
X90000000Y-62964042D01*
X90000000Y-62964042D02*
X90000000Y-63178328D01*
X90000000Y-63178328D02*
X89928572Y-63321185D01*
X89928572Y-63321185D02*
X89857143Y-63392614D01*
X89857143Y-63392614D02*
X89714286Y-63464042D01*
X89714286Y-63464042D02*
X89142857Y-63464042D01*
X90571429Y-63749757D02*
X91285715Y-63749757D01*
X90428572Y-64178328D02*
X90928572Y-62678328D01*
X90928572Y-62678328D02*
X91428572Y-64178328D01*
X92785714Y-64035471D02*
X92714286Y-64106900D01*
X92714286Y-64106900D02*
X92500000Y-64178328D01*
X92500000Y-64178328D02*
X92357143Y-64178328D01*
X92357143Y-64178328D02*
X92142857Y-64106900D01*
X92142857Y-64106900D02*
X92000000Y-63964042D01*
X92000000Y-63964042D02*
X91928571Y-63821185D01*
X91928571Y-63821185D02*
X91857143Y-63535471D01*
X91857143Y-63535471D02*
X91857143Y-63321185D01*
X91857143Y-63321185D02*
X91928571Y-63035471D01*
X91928571Y-63035471D02*
X92000000Y-62892614D01*
X92000000Y-62892614D02*
X92142857Y-62749757D01*
X92142857Y-62749757D02*
X92357143Y-62678328D01*
X92357143Y-62678328D02*
X92500000Y-62678328D01*
X92500000Y-62678328D02*
X92714286Y-62749757D01*
X92714286Y-62749757D02*
X92785714Y-62821185D01*
X93428571Y-63392614D02*
X93928571Y-63392614D01*
X94142857Y-64178328D02*
X93428571Y-64178328D01*
X93428571Y-64178328D02*
X93428571Y-62678328D01*
X93428571Y-62678328D02*
X94142857Y-62678328D01*
X95571429Y-64178328D02*
X94714286Y-64178328D01*
X95142857Y-64178328D02*
X95142857Y-62678328D01*
X95142857Y-62678328D02*
X95000000Y-62892614D01*
X95000000Y-62892614D02*
X94857143Y-63035471D01*
X94857143Y-63035471D02*
X94714286Y-63106900D01*
D12*
X117785714Y-71907200D02*
X117928571Y-71954819D01*
X117928571Y-71954819D02*
X118166666Y-71954819D01*
X118166666Y-71954819D02*
X118261904Y-71907200D01*
X118261904Y-71907200D02*
X118309523Y-71859580D01*
X118309523Y-71859580D02*
X118357142Y-71764342D01*
X118357142Y-71764342D02*
X118357142Y-71669104D01*
X118357142Y-71669104D02*
X118309523Y-71573866D01*
X118309523Y-71573866D02*
X118261904Y-71526247D01*
X118261904Y-71526247D02*
X118166666Y-71478628D01*
X118166666Y-71478628D02*
X117976190Y-71431009D01*
X117976190Y-71431009D02*
X117880952Y-71383390D01*
X117880952Y-71383390D02*
X117833333Y-71335771D01*
X117833333Y-71335771D02*
X117785714Y-71240533D01*
X117785714Y-71240533D02*
X117785714Y-71145295D01*
X117785714Y-71145295D02*
X117833333Y-71050057D01*
X117833333Y-71050057D02*
X117880952Y-71002438D01*
X117880952Y-71002438D02*
X117976190Y-70954819D01*
X117976190Y-70954819D02*
X118214285Y-70954819D01*
X118214285Y-70954819D02*
X118357142Y-71002438D01*
X118785714Y-71954819D02*
X118785714Y-70954819D01*
X118785714Y-70954819D02*
X119023809Y-70954819D01*
X119023809Y-70954819D02*
X119166666Y-71002438D01*
X119166666Y-71002438D02*
X119261904Y-71097676D01*
X119261904Y-71097676D02*
X119309523Y-71192914D01*
X119309523Y-71192914D02*
X119357142Y-71383390D01*
X119357142Y-71383390D02*
X119357142Y-71526247D01*
X119357142Y-71526247D02*
X119309523Y-71716723D01*
X119309523Y-71716723D02*
X119261904Y-71811961D01*
X119261904Y-71811961D02*
X119166666Y-71907200D01*
X119166666Y-71907200D02*
X119023809Y-71954819D01*
X119023809Y-71954819D02*
X118785714Y-71954819D01*
X119738095Y-71669104D02*
X120214285Y-71669104D01*
X119642857Y-71954819D02*
X119976190Y-70954819D01*
X119976190Y-70954819D02*
X120309523Y-71954819D01*
X112309524Y-91907200D02*
X112452381Y-91954819D01*
X112452381Y-91954819D02*
X112690476Y-91954819D01*
X112690476Y-91954819D02*
X112785714Y-91907200D01*
X112785714Y-91907200D02*
X112833333Y-91859580D01*
X112833333Y-91859580D02*
X112880952Y-91764342D01*
X112880952Y-91764342D02*
X112880952Y-91669104D01*
X112880952Y-91669104D02*
X112833333Y-91573866D01*
X112833333Y-91573866D02*
X112785714Y-91526247D01*
X112785714Y-91526247D02*
X112690476Y-91478628D01*
X112690476Y-91478628D02*
X112500000Y-91431009D01*
X112500000Y-91431009D02*
X112404762Y-91383390D01*
X112404762Y-91383390D02*
X112357143Y-91335771D01*
X112357143Y-91335771D02*
X112309524Y-91240533D01*
X112309524Y-91240533D02*
X112309524Y-91145295D01*
X112309524Y-91145295D02*
X112357143Y-91050057D01*
X112357143Y-91050057D02*
X112404762Y-91002438D01*
X112404762Y-91002438D02*
X112500000Y-90954819D01*
X112500000Y-90954819D02*
X112738095Y-90954819D01*
X112738095Y-90954819D02*
X112880952Y-91002438D01*
X113880952Y-91859580D02*
X113833333Y-91907200D01*
X113833333Y-91907200D02*
X113690476Y-91954819D01*
X113690476Y-91954819D02*
X113595238Y-91954819D01*
X113595238Y-91954819D02*
X113452381Y-91907200D01*
X113452381Y-91907200D02*
X113357143Y-91811961D01*
X113357143Y-91811961D02*
X113309524Y-91716723D01*
X113309524Y-91716723D02*
X113261905Y-91526247D01*
X113261905Y-91526247D02*
X113261905Y-91383390D01*
X113261905Y-91383390D02*
X113309524Y-91192914D01*
X113309524Y-91192914D02*
X113357143Y-91097676D01*
X113357143Y-91097676D02*
X113452381Y-91002438D01*
X113452381Y-91002438D02*
X113595238Y-90954819D01*
X113595238Y-90954819D02*
X113690476Y-90954819D01*
X113690476Y-90954819D02*
X113833333Y-91002438D01*
X113833333Y-91002438D02*
X113880952Y-91050057D01*
X114785714Y-91954819D02*
X114309524Y-91954819D01*
X114309524Y-91954819D02*
X114309524Y-90954819D01*
X113142857Y-86933009D02*
X112809524Y-86933009D01*
X112809524Y-87456819D02*
X112809524Y-86456819D01*
X112809524Y-86456819D02*
X113285714Y-86456819D01*
X113666667Y-87456819D02*
X113666667Y-86456819D01*
X113666667Y-86456819D02*
X113904762Y-86456819D01*
X113904762Y-86456819D02*
X114047619Y-86504438D01*
X114047619Y-86504438D02*
X114142857Y-86599676D01*
X114142857Y-86599676D02*
X114190476Y-86694914D01*
X114190476Y-86694914D02*
X114238095Y-86885390D01*
X114238095Y-86885390D02*
X114238095Y-87028247D01*
X114238095Y-87028247D02*
X114190476Y-87218723D01*
X114190476Y-87218723D02*
X114142857Y-87313961D01*
X114142857Y-87313961D02*
X114047619Y-87409200D01*
X114047619Y-87409200D02*
X113904762Y-87456819D01*
X113904762Y-87456819D02*
X113666667Y-87456819D01*
X112674580Y-82291666D02*
X112722200Y-82339285D01*
X112722200Y-82339285D02*
X112769819Y-82482142D01*
X112769819Y-82482142D02*
X112769819Y-82577380D01*
X112769819Y-82577380D02*
X112722200Y-82720237D01*
X112722200Y-82720237D02*
X112626961Y-82815475D01*
X112626961Y-82815475D02*
X112531723Y-82863094D01*
X112531723Y-82863094D02*
X112341247Y-82910713D01*
X112341247Y-82910713D02*
X112198390Y-82910713D01*
X112198390Y-82910713D02*
X112007914Y-82863094D01*
X112007914Y-82863094D02*
X111912676Y-82815475D01*
X111912676Y-82815475D02*
X111817438Y-82720237D01*
X111817438Y-82720237D02*
X111769819Y-82577380D01*
X111769819Y-82577380D02*
X111769819Y-82482142D01*
X111769819Y-82482142D02*
X111817438Y-82339285D01*
X111817438Y-82339285D02*
X111865057Y-82291666D01*
X112769819Y-81339285D02*
X112769819Y-81910713D01*
X112769819Y-81624999D02*
X111769819Y-81624999D01*
X111769819Y-81624999D02*
X111912676Y-81720237D01*
X111912676Y-81720237D02*
X112007914Y-81815475D01*
X112007914Y-81815475D02*
X112055533Y-81910713D01*
X109396905Y-79192319D02*
X109396905Y-78192319D01*
X109396905Y-78192319D02*
X109635000Y-78192319D01*
X109635000Y-78192319D02*
X109777857Y-78239938D01*
X109777857Y-78239938D02*
X109873095Y-78335176D01*
X109873095Y-78335176D02*
X109920714Y-78430414D01*
X109920714Y-78430414D02*
X109968333Y-78620890D01*
X109968333Y-78620890D02*
X109968333Y-78763747D01*
X109968333Y-78763747D02*
X109920714Y-78954223D01*
X109920714Y-78954223D02*
X109873095Y-79049461D01*
X109873095Y-79049461D02*
X109777857Y-79144700D01*
X109777857Y-79144700D02*
X109635000Y-79192319D01*
X109635000Y-79192319D02*
X109396905Y-79192319D01*
X110920714Y-79192319D02*
X110349286Y-79192319D01*
X110635000Y-79192319D02*
X110635000Y-78192319D01*
X110635000Y-78192319D02*
X110539762Y-78335176D01*
X110539762Y-78335176D02*
X110444524Y-78430414D01*
X110444524Y-78430414D02*
X110349286Y-78478033D01*
X101989819Y-86206547D02*
X100989819Y-86206547D01*
X100989819Y-86206547D02*
X101989819Y-85635119D01*
X101989819Y-85635119D02*
X100989819Y-85635119D01*
X100989819Y-85301785D02*
X100989819Y-84730357D01*
X101989819Y-85016071D02*
X100989819Y-85016071D01*
X100989819Y-84492261D02*
X100989819Y-83873214D01*
X100989819Y-83873214D02*
X101370771Y-84206547D01*
X101370771Y-84206547D02*
X101370771Y-84063690D01*
X101370771Y-84063690D02*
X101418390Y-83968452D01*
X101418390Y-83968452D02*
X101466009Y-83920833D01*
X101466009Y-83920833D02*
X101561247Y-83873214D01*
X101561247Y-83873214D02*
X101799342Y-83873214D01*
X101799342Y-83873214D02*
X101894580Y-83920833D01*
X101894580Y-83920833D02*
X101942200Y-83968452D01*
X101942200Y-83968452D02*
X101989819Y-84063690D01*
X101989819Y-84063690D02*
X101989819Y-84349404D01*
X101989819Y-84349404D02*
X101942200Y-84444642D01*
X101942200Y-84444642D02*
X101894580Y-84492261D01*
X101989819Y-83444642D02*
X100989819Y-83444642D01*
X101466009Y-83444642D02*
X101466009Y-82873214D01*
X101989819Y-82873214D02*
X100989819Y-82873214D01*
X101085057Y-82444642D02*
X101037438Y-82397023D01*
X101037438Y-82397023D02*
X100989819Y-82301785D01*
X100989819Y-82301785D02*
X100989819Y-82063690D01*
X100989819Y-82063690D02*
X101037438Y-81968452D01*
X101037438Y-81968452D02*
X101085057Y-81920833D01*
X101085057Y-81920833D02*
X101180295Y-81873214D01*
X101180295Y-81873214D02*
X101275533Y-81873214D01*
X101275533Y-81873214D02*
X101418390Y-81920833D01*
X101418390Y-81920833D02*
X101989819Y-82492261D01*
X101989819Y-82492261D02*
X101989819Y-81873214D01*
X101989819Y-80920833D02*
X101989819Y-81492261D01*
X101989819Y-81206547D02*
X100989819Y-81206547D01*
X100989819Y-81206547D02*
X101132676Y-81301785D01*
X101132676Y-81301785D02*
X101227914Y-81397023D01*
X101227914Y-81397023D02*
X101275533Y-81492261D01*
X101989819Y-79968452D02*
X101989819Y-80539880D01*
X101989819Y-80254166D02*
X100989819Y-80254166D01*
X100989819Y-80254166D02*
X101132676Y-80349404D01*
X101132676Y-80349404D02*
X101227914Y-80444642D01*
X101227914Y-80444642D02*
X101275533Y-80539880D01*
X101989819Y-79016071D02*
X101989819Y-79587499D01*
X101989819Y-79301785D02*
X100989819Y-79301785D01*
X100989819Y-79301785D02*
X101132676Y-79397023D01*
X101132676Y-79397023D02*
X101227914Y-79492261D01*
X101227914Y-79492261D02*
X101275533Y-79587499D01*
X100989819Y-78682737D02*
X101989819Y-78444642D01*
X101989819Y-78444642D02*
X101275533Y-78254166D01*
X101275533Y-78254166D02*
X101989819Y-78063690D01*
X101989819Y-78063690D02*
X100989819Y-77825595D01*
X101989819Y-76920833D02*
X101989819Y-77492261D01*
X101989819Y-77206547D02*
X100989819Y-77206547D01*
X100989819Y-77206547D02*
X101132676Y-77301785D01*
X101132676Y-77301785D02*
X101227914Y-77397023D01*
X101227914Y-77397023D02*
X101275533Y-77492261D01*
X115739819Y-79754166D02*
X115263628Y-80087499D01*
X115739819Y-80325594D02*
X114739819Y-80325594D01*
X114739819Y-80325594D02*
X114739819Y-79944642D01*
X114739819Y-79944642D02*
X114787438Y-79849404D01*
X114787438Y-79849404D02*
X114835057Y-79801785D01*
X114835057Y-79801785D02*
X114930295Y-79754166D01*
X114930295Y-79754166D02*
X115073152Y-79754166D01*
X115073152Y-79754166D02*
X115168390Y-79801785D01*
X115168390Y-79801785D02*
X115216009Y-79849404D01*
X115216009Y-79849404D02*
X115263628Y-79944642D01*
X115263628Y-79944642D02*
X115263628Y-80325594D01*
X115739819Y-78801785D02*
X115739819Y-79373213D01*
X115739819Y-79087499D02*
X114739819Y-79087499D01*
X114739819Y-79087499D02*
X114882676Y-79182737D01*
X114882676Y-79182737D02*
X114977914Y-79277975D01*
X114977914Y-79277975D02*
X115025533Y-79373213D01*
D13*
%TO.C,G\u002A\u002A\u002A*%
G36*
X85215833Y-80740208D02*
G01*
X85215833Y-82518208D01*
X83437833Y-82518208D01*
X81659833Y-82518208D01*
X81659833Y-82010208D01*
X82167833Y-82010208D01*
X83437833Y-82010208D01*
X84707833Y-82010208D01*
X84707833Y-80740208D01*
X84707833Y-79470208D01*
X83437833Y-79470208D01*
X82167833Y-79470208D01*
X82167833Y-80740208D01*
X82167833Y-82010208D01*
X81659833Y-82010208D01*
X81659833Y-80740208D01*
X81659833Y-78962208D01*
X83437833Y-78962208D01*
X85215833Y-78962208D01*
X85215833Y-80740208D01*
G37*
G36*
X86739833Y-74136208D02*
G01*
X86739833Y-74898208D01*
X87755833Y-74898208D01*
X88771833Y-74898208D01*
X88771833Y-75660208D01*
X88771833Y-76422208D01*
X88263833Y-76422208D01*
X87755833Y-76422208D01*
X87755833Y-77184208D01*
X87755833Y-77946208D01*
X88009833Y-77946208D01*
X88263833Y-77946208D01*
X88263833Y-78454208D01*
X88263833Y-78962208D01*
X88517833Y-78962208D01*
X88771833Y-78962208D01*
X88771833Y-79216208D01*
X88771833Y-79470208D01*
X88263833Y-79470208D01*
X87755833Y-79470208D01*
X87755833Y-78962208D01*
X87755833Y-78454208D01*
X87501833Y-78454208D01*
X87247833Y-78454208D01*
X87247833Y-79216208D01*
X87247833Y-79978208D01*
X86993833Y-79978208D01*
X86739833Y-79978208D01*
X86739833Y-80486208D01*
X86739833Y-80994208D01*
X86993833Y-80994208D01*
X87247833Y-80994208D01*
X87247833Y-80740208D01*
X87247833Y-80486208D01*
X87755833Y-80486208D01*
X88263833Y-80486208D01*
X88263833Y-80740208D01*
X88263833Y-80994208D01*
X88517833Y-80994208D01*
X88771833Y-80994208D01*
X88771833Y-80740208D01*
X88771833Y-80486208D01*
X89025833Y-80486208D01*
X89279833Y-80486208D01*
X89279833Y-80232208D01*
X89279833Y-79978208D01*
X89533833Y-79978208D01*
X89787833Y-79978208D01*
X89787833Y-80232208D01*
X89787833Y-80486208D01*
X90041833Y-80486208D01*
X90295833Y-80486208D01*
X90295833Y-80740208D01*
X90295833Y-80994208D01*
X90041833Y-80994208D01*
X89787833Y-80994208D01*
X89787833Y-81248208D01*
X89787833Y-81502208D01*
X90041833Y-81502208D01*
X90295833Y-81502208D01*
X90295833Y-81248208D01*
X90295833Y-80994208D01*
X90549833Y-80994208D01*
X90803833Y-80994208D01*
X91311833Y-80994208D01*
X91819833Y-80994208D01*
X92327833Y-80994208D01*
X92327833Y-80740208D01*
X92327833Y-80486208D01*
X91819833Y-80486208D01*
X91311833Y-80486208D01*
X91311833Y-80740208D01*
X91311833Y-80994208D01*
X90803833Y-80994208D01*
X90803833Y-80740208D01*
X90803833Y-80486208D01*
X91057833Y-80486208D01*
X91311833Y-80486208D01*
X91311833Y-80232208D01*
X91311833Y-79978208D01*
X91565833Y-79978208D01*
X91819833Y-79978208D01*
X92327833Y-79978208D01*
X93089833Y-79978208D01*
X93851833Y-79978208D01*
X93851833Y-79216208D01*
X93851833Y-78454208D01*
X93089833Y-78454208D01*
X92327833Y-78454208D01*
X92327833Y-79216208D01*
X92327833Y-79978208D01*
X91819833Y-79978208D01*
X91819833Y-79724208D01*
X91819833Y-79470208D01*
X91565833Y-79470208D01*
X91311833Y-79470208D01*
X91311833Y-79216208D01*
X91311833Y-78962208D01*
X91311833Y-78454208D01*
X91565833Y-78454208D01*
X91819833Y-78454208D01*
X91819833Y-78200208D01*
X91819833Y-77946208D01*
X92327833Y-77946208D01*
X92835833Y-77946208D01*
X92835833Y-77692208D01*
X92835833Y-77438208D01*
X93089833Y-77438208D01*
X93343833Y-77438208D01*
X93343833Y-77184208D01*
X93343833Y-76930208D01*
X93597833Y-76930208D01*
X93851833Y-76930208D01*
X93851833Y-77184208D01*
X93851833Y-77438208D01*
X94105833Y-77438208D01*
X94359833Y-77438208D01*
X94359833Y-77184208D01*
X94359833Y-76930208D01*
X94613833Y-76930208D01*
X94867833Y-76930208D01*
X94867833Y-76676208D01*
X94867833Y-76422208D01*
X95121833Y-76422208D01*
X95375833Y-76422208D01*
X95375833Y-76168208D01*
X95375833Y-75914208D01*
X95121833Y-75914208D01*
X94867833Y-75914208D01*
X94867833Y-75660208D01*
X94867833Y-75406208D01*
X95121833Y-75406208D01*
X95375833Y-75406208D01*
X95375833Y-75660208D01*
X95375833Y-75914208D01*
X95629833Y-75914208D01*
X95883833Y-75914208D01*
X95883833Y-75406208D01*
X95883833Y-74898208D01*
X96137833Y-74898208D01*
X96391833Y-74898208D01*
X96391833Y-75406208D01*
X96391833Y-75914208D01*
X96137833Y-75914208D01*
X95883833Y-75914208D01*
X95883833Y-76168208D01*
X95883833Y-76422208D01*
X95629833Y-76422208D01*
X95375833Y-76422208D01*
X95375833Y-76930208D01*
X95375833Y-77438208D01*
X94867833Y-77438208D01*
X94359833Y-77438208D01*
X94359833Y-78454208D01*
X94359833Y-79470208D01*
X94867833Y-79470208D01*
X95375833Y-79470208D01*
X95375833Y-79724208D01*
X95375833Y-79978208D01*
X95629833Y-79978208D01*
X95883833Y-79978208D01*
X95883833Y-79470208D01*
X95883833Y-78962208D01*
X96137833Y-78962208D01*
X96391833Y-78962208D01*
X96391833Y-79724208D01*
X96391833Y-80486208D01*
X96137833Y-80486208D01*
X95883833Y-80486208D01*
X95883833Y-80994208D01*
X95883833Y-81502208D01*
X95629833Y-81502208D01*
X95375833Y-81502208D01*
X95375833Y-81756208D01*
X95375833Y-82010208D01*
X95629833Y-82010208D01*
X95883833Y-82010208D01*
X95883833Y-82264208D01*
X95883833Y-82518208D01*
X95375833Y-82518208D01*
X94867833Y-82518208D01*
X94867833Y-82264208D01*
X94867833Y-82010208D01*
X94613833Y-82010208D01*
X94359833Y-82010208D01*
X94359833Y-82264208D01*
X94359833Y-82518208D01*
X94105833Y-82518208D01*
X93851833Y-82518208D01*
X93851833Y-82264208D01*
X93851833Y-82010208D01*
X93597833Y-82010208D01*
X93343833Y-82010208D01*
X93343833Y-81756208D01*
X93343833Y-81502208D01*
X93597833Y-81502208D01*
X93851833Y-81502208D01*
X93851833Y-81756208D01*
X93851833Y-82010208D01*
X94105833Y-82010208D01*
X94359833Y-82010208D01*
X94359833Y-81502208D01*
X94359833Y-80994208D01*
X94613833Y-80994208D01*
X94867833Y-80994208D01*
X94867833Y-81248208D01*
X94867833Y-81502208D01*
X95121833Y-81502208D01*
X95375833Y-81502208D01*
X95375833Y-80994208D01*
X95375833Y-80486208D01*
X95121833Y-80486208D01*
X94867833Y-80486208D01*
X94867833Y-80232208D01*
X94867833Y-79978208D01*
X94613833Y-79978208D01*
X94359833Y-79978208D01*
X94359833Y-80232208D01*
X94359833Y-80486208D01*
X94105833Y-80486208D01*
X93851833Y-80486208D01*
X93851833Y-80740208D01*
X93851833Y-80994208D01*
X93597833Y-80994208D01*
X93343833Y-80994208D01*
X93343833Y-80740208D01*
X93343833Y-80486208D01*
X93089833Y-80486208D01*
X92835833Y-80486208D01*
X92835833Y-80740208D01*
X92835833Y-80994208D01*
X93089833Y-80994208D01*
X93343833Y-80994208D01*
X93343833Y-81248208D01*
X93343833Y-81502208D01*
X92835833Y-81502208D01*
X92327833Y-81502208D01*
X92327833Y-81756208D01*
X92327833Y-82010208D01*
X91819833Y-82010208D01*
X91311833Y-82010208D01*
X91311833Y-82264208D01*
X91311833Y-82518208D01*
X91057833Y-82518208D01*
X90803833Y-82518208D01*
X90803833Y-82264208D01*
X90803833Y-82010208D01*
X91057833Y-82010208D01*
X91311833Y-82010208D01*
X91311833Y-81756208D01*
X91311833Y-81502208D01*
X90803833Y-81502208D01*
X90295833Y-81502208D01*
X90295833Y-82010208D01*
X90295833Y-82518208D01*
X89279833Y-82518208D01*
X88263833Y-82518208D01*
X88263833Y-82264208D01*
X88263833Y-82010208D01*
X88771833Y-82010208D01*
X89025833Y-82010208D01*
X89279833Y-82010208D01*
X89279833Y-81502208D01*
X89279833Y-80994208D01*
X89025833Y-80994208D01*
X88771833Y-80994208D01*
X88771833Y-81502208D01*
X88771833Y-82010208D01*
X88263833Y-82010208D01*
X88009833Y-82010208D01*
X87755833Y-82010208D01*
X87755833Y-82264208D01*
X87755833Y-82518208D01*
X87501833Y-82518208D01*
X87247833Y-82518208D01*
X87247833Y-82264208D01*
X87247833Y-82010208D01*
X87501833Y-82010208D01*
X87755833Y-82010208D01*
X87755833Y-81756208D01*
X87755833Y-81502208D01*
X88009833Y-81502208D01*
X88263833Y-81502208D01*
X88263833Y-81248208D01*
X88263833Y-80994208D01*
X87755833Y-80994208D01*
X87247833Y-80994208D01*
X87247833Y-81248208D01*
X87247833Y-81502208D01*
X86993833Y-81502208D01*
X86739833Y-81502208D01*
X86739833Y-81756208D01*
X86739833Y-82010208D01*
X86231833Y-82010208D01*
X85723833Y-82010208D01*
X85723833Y-81756208D01*
X85723833Y-81502208D01*
X85977833Y-81502208D01*
X86231833Y-81502208D01*
X86231833Y-81248208D01*
X86231833Y-80994208D01*
X85977833Y-80994208D01*
X85723833Y-80994208D01*
X85723833Y-80486208D01*
X85723833Y-79978208D01*
X85977833Y-79978208D01*
X86231833Y-79978208D01*
X86231833Y-79724208D01*
X86231833Y-79470208D01*
X85977833Y-79470208D01*
X85723833Y-79470208D01*
X85723833Y-78962208D01*
X85723833Y-78454208D01*
X85977833Y-78454208D01*
X86231833Y-78454208D01*
X86231833Y-78962208D01*
X86231833Y-79470208D01*
X86485833Y-79470208D01*
X86739833Y-79470208D01*
X86739833Y-78454208D01*
X86739833Y-77438208D01*
X86485833Y-77438208D01*
X86231833Y-77438208D01*
X86231833Y-77692208D01*
X86231833Y-77946208D01*
X85977833Y-77946208D01*
X85723833Y-77946208D01*
X85723833Y-77692208D01*
X85723833Y-77438208D01*
X85215833Y-77438208D01*
X84707833Y-77438208D01*
X84707833Y-77184208D01*
X84707833Y-76930208D01*
X84961833Y-76930208D01*
X85215833Y-76930208D01*
X85215833Y-76676208D01*
X85215833Y-76422208D01*
X85469833Y-76422208D01*
X85723833Y-76422208D01*
X85723833Y-76930208D01*
X85723833Y-77438208D01*
X85977833Y-77438208D01*
X86231833Y-77438208D01*
X86231833Y-76676208D01*
X86231833Y-75914208D01*
X86485833Y-75914208D01*
X86739833Y-75914208D01*
X86739833Y-76676208D01*
X86739833Y-77438208D01*
X86993833Y-77438208D01*
X87247833Y-77438208D01*
X87247833Y-76422208D01*
X87247833Y-75406208D01*
X86485833Y-75406208D01*
X85723833Y-75406208D01*
X85723833Y-75152208D01*
X85723833Y-74898208D01*
X85977833Y-74898208D01*
X86231833Y-74898208D01*
X86231833Y-74136208D01*
X86231833Y-73374208D01*
X86485833Y-73374208D01*
X86739833Y-73374208D01*
X86739833Y-74136208D01*
G37*
G36*
X95375833Y-78200208D02*
G01*
X95375833Y-78454208D01*
X95629833Y-78454208D01*
X95883833Y-78454208D01*
X95883833Y-78200208D01*
X95883833Y-77946208D01*
X96137833Y-77946208D01*
X96391833Y-77946208D01*
X96391833Y-78200208D01*
X96391833Y-78454208D01*
X96137833Y-78454208D01*
X95883833Y-78454208D01*
X95883833Y-78708208D01*
X95883833Y-78962208D01*
X95375833Y-78962208D01*
X94867833Y-78962208D01*
X94867833Y-78454208D01*
X94867833Y-77946208D01*
X95121833Y-77946208D01*
X95375833Y-77946208D01*
X95375833Y-78200208D01*
G37*
G36*
X84199833Y-77438208D02*
G01*
X84199833Y-77946208D01*
X83945833Y-77946208D01*
X83691833Y-77946208D01*
X83691833Y-78200208D01*
X83691833Y-78454208D01*
X83437833Y-78454208D01*
X83183833Y-78454208D01*
X83183833Y-78200208D01*
X83183833Y-77946208D01*
X82675833Y-77946208D01*
X82167833Y-77946208D01*
X82167833Y-78200208D01*
X82167833Y-78454208D01*
X81913833Y-78454208D01*
X81659833Y-78454208D01*
X81659833Y-77946208D01*
X81659833Y-77438208D01*
X82421833Y-77438208D01*
X83183833Y-77438208D01*
X83183833Y-77692208D01*
X83183833Y-77946208D01*
X83437833Y-77946208D01*
X83691833Y-77946208D01*
X83691833Y-77438208D01*
X83691833Y-76930208D01*
X83945833Y-76930208D01*
X84199833Y-76930208D01*
X84199833Y-77438208D01*
G37*
G36*
X85215833Y-78200208D02*
G01*
X85215833Y-78454208D01*
X84707833Y-78454208D01*
X84199833Y-78454208D01*
X84199833Y-78200208D01*
X84199833Y-77946208D01*
X84707833Y-77946208D01*
X85215833Y-77946208D01*
X85215833Y-78200208D01*
G37*
G36*
X87247833Y-68040208D02*
G01*
X87247833Y-68294208D01*
X87501833Y-68294208D01*
X87755833Y-68294208D01*
X87755833Y-68040208D01*
X87755833Y-67786208D01*
X90041833Y-67786208D01*
X92327833Y-67786208D01*
X92327833Y-68294208D01*
X92327833Y-68802208D01*
X92073833Y-68802208D01*
X91819833Y-68802208D01*
X91819833Y-69310208D01*
X91819833Y-69818208D01*
X91565833Y-69818208D01*
X91311833Y-69818208D01*
X91311833Y-70580208D01*
X91311833Y-71342208D01*
X91057833Y-71342208D01*
X90803833Y-71342208D01*
X90803833Y-71850208D01*
X90803833Y-72358208D01*
X91057833Y-72358208D01*
X91311833Y-72358208D01*
X91311833Y-72104208D01*
X91311833Y-71850208D01*
X91565833Y-71850208D01*
X91819833Y-71850208D01*
X91819833Y-72104208D01*
X91819833Y-72358208D01*
X92073833Y-72358208D01*
X92327833Y-72358208D01*
X92327833Y-72104208D01*
X92327833Y-71850208D01*
X92581833Y-71850208D01*
X92835833Y-71850208D01*
X92835833Y-72104208D01*
X92835833Y-72358208D01*
X93089833Y-72358208D01*
X93343833Y-72358208D01*
X93343833Y-72104208D01*
X93343833Y-71850208D01*
X94105833Y-71850208D01*
X94867833Y-71850208D01*
X94867833Y-72358208D01*
X94867833Y-72866208D01*
X94359833Y-72866208D01*
X93851833Y-72866208D01*
X93851833Y-72612208D01*
X93851833Y-72358208D01*
X93597833Y-72358208D01*
X93343833Y-72358208D01*
X93343833Y-72866208D01*
X93343833Y-73374208D01*
X94613833Y-73374208D01*
X95883833Y-73374208D01*
X95883833Y-72866208D01*
X95883833Y-72358208D01*
X96137833Y-72358208D01*
X96391833Y-72358208D01*
X96391833Y-72866208D01*
X96391833Y-73374208D01*
X96137833Y-73374208D01*
X95883833Y-73374208D01*
X95883833Y-73628208D01*
X95883833Y-73882208D01*
X96137833Y-73882208D01*
X96391833Y-73882208D01*
X96391833Y-74136208D01*
X96391833Y-74390208D01*
X95883833Y-74390208D01*
X95375833Y-74390208D01*
X95375833Y-74644208D01*
X95375833Y-74898208D01*
X95121833Y-74898208D01*
X94867833Y-74898208D01*
X94867833Y-75152208D01*
X94867833Y-75406208D01*
X94359833Y-75406208D01*
X93851833Y-75406208D01*
X93851833Y-75660208D01*
X93851833Y-75914208D01*
X93089833Y-75914208D01*
X92327833Y-75914208D01*
X92327833Y-75660208D01*
X92327833Y-75406208D01*
X92835833Y-75406208D01*
X93343833Y-75406208D01*
X93343833Y-75152208D01*
X93343833Y-74898208D01*
X94359833Y-74898208D01*
X94613833Y-74898208D01*
X94867833Y-74898208D01*
X94867833Y-74644208D01*
X94867833Y-74390208D01*
X94613833Y-74390208D01*
X94359833Y-74390208D01*
X94359833Y-74644208D01*
X94359833Y-74898208D01*
X93343833Y-74898208D01*
X93089833Y-74898208D01*
X92835833Y-74898208D01*
X92835833Y-74644208D01*
X92835833Y-74390208D01*
X93597833Y-74390208D01*
X94359833Y-74390208D01*
X94359833Y-74136208D01*
X94359833Y-73882208D01*
X93851833Y-73882208D01*
X93343833Y-73882208D01*
X93343833Y-73628208D01*
X93343833Y-73374208D01*
X93089833Y-73374208D01*
X92835833Y-73374208D01*
X92835833Y-72866208D01*
X92835833Y-72358208D01*
X92581833Y-72358208D01*
X92327833Y-72358208D01*
X92327833Y-72612208D01*
X92327833Y-72866208D01*
X92073833Y-72866208D01*
X91819833Y-72866208D01*
X91819833Y-73120208D01*
X91819833Y-73374208D01*
X91565833Y-73374208D01*
X91311833Y-73374208D01*
X91311833Y-73120208D01*
X91311833Y-72866208D01*
X91057833Y-72866208D01*
X90803833Y-72866208D01*
X90803833Y-72612208D01*
X90803833Y-72358208D01*
X90295833Y-72358208D01*
X89787833Y-72358208D01*
X89787833Y-72866208D01*
X89787833Y-73374208D01*
X89533833Y-73374208D01*
X89279833Y-73374208D01*
X89279833Y-73628208D01*
X89279833Y-73882208D01*
X89025833Y-73882208D01*
X88771833Y-73882208D01*
X88771833Y-74136208D01*
X88771833Y-74390208D01*
X88517833Y-74390208D01*
X88263833Y-74390208D01*
X88263833Y-74136208D01*
X88263833Y-73882208D01*
X88009833Y-73882208D01*
X87755833Y-73882208D01*
X87755833Y-73628208D01*
X87755833Y-73374208D01*
X88263833Y-73374208D01*
X88517833Y-73374208D01*
X88771833Y-73374208D01*
X88771833Y-73120208D01*
X88771833Y-72866208D01*
X88517833Y-72866208D01*
X88263833Y-72866208D01*
X88263833Y-73120208D01*
X88263833Y-73374208D01*
X87755833Y-73374208D01*
X87501833Y-73374208D01*
X87247833Y-73374208D01*
X87247833Y-73120208D01*
X87247833Y-72866208D01*
X86739833Y-72866208D01*
X86231833Y-72866208D01*
X86231833Y-72612208D01*
X86231833Y-72358208D01*
X86739833Y-72358208D01*
X86993833Y-72358208D01*
X87247833Y-72358208D01*
X87247833Y-72104208D01*
X87247833Y-71850208D01*
X86993833Y-71850208D01*
X86739833Y-71850208D01*
X86739833Y-72104208D01*
X86739833Y-72358208D01*
X86231833Y-72358208D01*
X85977833Y-72358208D01*
X85723833Y-72358208D01*
X85723833Y-72612208D01*
X85723833Y-72866208D01*
X85469833Y-72866208D01*
X85215833Y-72866208D01*
X85215833Y-72612208D01*
X85215833Y-72358208D01*
X84961833Y-72358208D01*
X84707833Y-72358208D01*
X84707833Y-72612208D01*
X84707833Y-72866208D01*
X84199833Y-72866208D01*
X83691833Y-72866208D01*
X83691833Y-73120208D01*
X83691833Y-73374208D01*
X83183833Y-73374208D01*
X82675833Y-73374208D01*
X82675833Y-73628208D01*
X82675833Y-73882208D01*
X82421833Y-73882208D01*
X82167833Y-73882208D01*
X82167833Y-74136208D01*
X82167833Y-74390208D01*
X82421833Y-74390208D01*
X82675833Y-74390208D01*
X82675833Y-74136208D01*
X82675833Y-73882208D01*
X83437833Y-73882208D01*
X84199833Y-73882208D01*
X84199833Y-74390208D01*
X84199833Y-74898208D01*
X84707833Y-74898208D01*
X85215833Y-74898208D01*
X85215833Y-75152208D01*
X85215833Y-75406208D01*
X84961833Y-75406208D01*
X84707833Y-75406208D01*
X84707833Y-75660208D01*
X84707833Y-75914208D01*
X84453833Y-75914208D01*
X84199833Y-75914208D01*
X84199833Y-76168208D01*
X84199833Y-76422208D01*
X83945833Y-76422208D01*
X83691833Y-76422208D01*
X83691833Y-76676208D01*
X83691833Y-76930208D01*
X83437833Y-76930208D01*
X83183833Y-76930208D01*
X83183833Y-76676208D01*
X83183833Y-76422208D01*
X82929833Y-76422208D01*
X82675833Y-76422208D01*
X82675833Y-76676208D01*
X82675833Y-76930208D01*
X82421833Y-76930208D01*
X82167833Y-76930208D01*
X82167833Y-76676208D01*
X82167833Y-76422208D01*
X82421833Y-76422208D01*
X82675833Y-76422208D01*
X82675833Y-75914208D01*
X83691833Y-75914208D01*
X83945833Y-75914208D01*
X84199833Y-75914208D01*
X84199833Y-75660208D01*
X84199833Y-75406208D01*
X83945833Y-75406208D01*
X83691833Y-75406208D01*
X83691833Y-75660208D01*
X83691833Y-75914208D01*
X82675833Y-75914208D01*
X82675833Y-75660208D01*
X82675833Y-75406208D01*
X83183833Y-75406208D01*
X83691833Y-75406208D01*
X83691833Y-75152208D01*
X83691833Y-74898208D01*
X82929833Y-74898208D01*
X82167833Y-74898208D01*
X82167833Y-75406208D01*
X82167833Y-75914208D01*
X81913833Y-75914208D01*
X81659833Y-75914208D01*
X81659833Y-75406208D01*
X81659833Y-74898208D01*
X81913833Y-74898208D01*
X82167833Y-74898208D01*
X82167833Y-74644208D01*
X82167833Y-74390208D01*
X81913833Y-74390208D01*
X81659833Y-74390208D01*
X81659833Y-74136208D01*
X81659833Y-73882208D01*
X81913833Y-73882208D01*
X82167833Y-73882208D01*
X82167833Y-73628208D01*
X82167833Y-73374208D01*
X81913833Y-73374208D01*
X81659833Y-73374208D01*
X81659833Y-72866208D01*
X81659833Y-72358208D01*
X81913833Y-72358208D01*
X82167833Y-72358208D01*
X82167833Y-72104208D01*
X82167833Y-71850208D01*
X82421833Y-71850208D01*
X82675833Y-71850208D01*
X82675833Y-72358208D01*
X82675833Y-72866208D01*
X83183833Y-72866208D01*
X83691833Y-72866208D01*
X83691833Y-72612208D01*
X83691833Y-72358208D01*
X83437833Y-72358208D01*
X83183833Y-72358208D01*
X83183833Y-72104208D01*
X83183833Y-71850208D01*
X83691833Y-71850208D01*
X84199833Y-71850208D01*
X84199833Y-72104208D01*
X84199833Y-72358208D01*
X84453833Y-72358208D01*
X84707833Y-72358208D01*
X84707833Y-72104208D01*
X84707833Y-71850208D01*
X85469833Y-71850208D01*
X86231833Y-71850208D01*
X86231833Y-71596208D01*
X86231833Y-71342208D01*
X85977833Y-71342208D01*
X85723833Y-71342208D01*
X85723833Y-70834208D01*
X86231833Y-70834208D01*
X86231833Y-71342208D01*
X86485833Y-71342208D01*
X86739833Y-71342208D01*
X86739833Y-71088208D01*
X86739833Y-70834208D01*
X86993833Y-70834208D01*
X87247833Y-70834208D01*
X87247833Y-71088208D01*
X87247833Y-71342208D01*
X87501833Y-71342208D01*
X87755833Y-71342208D01*
X87755833Y-71088208D01*
X87755833Y-70834208D01*
X88009833Y-70834208D01*
X88263833Y-70834208D01*
X88263833Y-71596208D01*
X88263833Y-72358208D01*
X88009833Y-72358208D01*
X87755833Y-72358208D01*
X87755833Y-72612208D01*
X87755833Y-72866208D01*
X88009833Y-72866208D01*
X88263833Y-72866208D01*
X88263833Y-72612208D01*
X88263833Y-72358208D01*
X88517833Y-72358208D01*
X88771833Y-72358208D01*
X88771833Y-71342208D01*
X88771833Y-70326208D01*
X88263833Y-70326208D01*
X87755833Y-70326208D01*
X87755833Y-70072208D01*
X87755833Y-69818208D01*
X87501833Y-69818208D01*
X87247833Y-69818208D01*
X87247833Y-70072208D01*
X87247833Y-70326208D01*
X86739833Y-70326208D01*
X86231833Y-70326208D01*
X86231833Y-70834208D01*
X85723833Y-70834208D01*
X85723833Y-70326208D01*
X85723833Y-69310208D01*
X85977833Y-69310208D01*
X86231833Y-69310208D01*
X86231833Y-69564208D01*
X86231833Y-69818208D01*
X86485833Y-69818208D01*
X86739833Y-69818208D01*
X86739833Y-69310208D01*
X88263833Y-69310208D01*
X88517833Y-69310208D01*
X88771833Y-69310208D01*
X88771833Y-69564208D01*
X88771833Y-69818208D01*
X89025833Y-69818208D01*
X89279833Y-69818208D01*
X89279833Y-69564208D01*
X89279833Y-69310208D01*
X89533833Y-69310208D01*
X89787833Y-69310208D01*
X89787833Y-70072208D01*
X89787833Y-70834208D01*
X89533833Y-70834208D01*
X89279833Y-70834208D01*
X89279833Y-71596208D01*
X89279833Y-72358208D01*
X89533833Y-72358208D01*
X89787833Y-72358208D01*
X89787833Y-72104208D01*
X89787833Y-71850208D01*
X90041833Y-71850208D01*
X90295833Y-71850208D01*
X90295833Y-71596208D01*
X90295833Y-71342208D01*
X90549833Y-71342208D01*
X90803833Y-71342208D01*
X90803833Y-70580208D01*
X90803833Y-69818208D01*
X91057833Y-69818208D01*
X91311833Y-69818208D01*
X91311833Y-69310208D01*
X91311833Y-68802208D01*
X90295833Y-68802208D01*
X89279833Y-68802208D01*
X89279833Y-69056208D01*
X89279833Y-69310208D01*
X89025833Y-69310208D01*
X88771833Y-69310208D01*
X88771833Y-69056208D01*
X88771833Y-68802208D01*
X88517833Y-68802208D01*
X88263833Y-68802208D01*
X88263833Y-69056208D01*
X88263833Y-69310208D01*
X86739833Y-69310208D01*
X86739833Y-69056208D01*
X86739833Y-68802208D01*
X86993833Y-68802208D01*
X87247833Y-68802208D01*
X87755833Y-68802208D01*
X88009833Y-68802208D01*
X88263833Y-68802208D01*
X88263833Y-68548208D01*
X88263833Y-68294208D01*
X88009833Y-68294208D01*
X87755833Y-68294208D01*
X87755833Y-68548208D01*
X87755833Y-68802208D01*
X87247833Y-68802208D01*
X87247833Y-68548208D01*
X87247833Y-68294208D01*
X86993833Y-68294208D01*
X86739833Y-68294208D01*
X86739833Y-68040208D01*
X86739833Y-67786208D01*
X86993833Y-67786208D01*
X87247833Y-67786208D01*
X87247833Y-68040208D01*
G37*
G36*
X85215833Y-76168208D02*
G01*
X85215833Y-76422208D01*
X84961833Y-76422208D01*
X84707833Y-76422208D01*
X84707833Y-76168208D01*
X84707833Y-75914208D01*
X84961833Y-75914208D01*
X85215833Y-75914208D01*
X85215833Y-76168208D01*
G37*
G36*
X95883833Y-72104208D02*
G01*
X95883833Y-72358208D01*
X95629833Y-72358208D01*
X95375833Y-72358208D01*
X95375833Y-72104208D01*
X95375833Y-71850208D01*
X95629833Y-71850208D01*
X95883833Y-71850208D01*
X95883833Y-72104208D01*
G37*
G36*
X92327833Y-70072208D02*
G01*
X92327833Y-70326208D01*
X92073833Y-70326208D01*
X91819833Y-70326208D01*
X91819833Y-70072208D01*
X91819833Y-69818208D01*
X92073833Y-69818208D01*
X92327833Y-69818208D01*
X92327833Y-70072208D01*
G37*
G36*
X96391833Y-77184208D02*
G01*
X96391833Y-77438208D01*
X96137833Y-77438208D01*
X95883833Y-77438208D01*
X95883833Y-77184208D01*
X95883833Y-76930208D01*
X96137833Y-76930208D01*
X96391833Y-76930208D01*
X96391833Y-77184208D01*
G37*
G36*
X85215833Y-69564208D02*
G01*
X85215833Y-71342208D01*
X83437833Y-71342208D01*
X81659833Y-71342208D01*
X81659833Y-70834208D01*
X82167833Y-70834208D01*
X83437833Y-70834208D01*
X84707833Y-70834208D01*
X84707833Y-69564208D01*
X84707833Y-68294208D01*
X83437833Y-68294208D01*
X82167833Y-68294208D01*
X82167833Y-69564208D01*
X82167833Y-70834208D01*
X81659833Y-70834208D01*
X81659833Y-69564208D01*
X81659833Y-67786208D01*
X83437833Y-67786208D01*
X85215833Y-67786208D01*
X85215833Y-69564208D01*
G37*
G36*
X92327833Y-71088208D02*
G01*
X92327833Y-71342208D01*
X92073833Y-71342208D01*
X91819833Y-71342208D01*
X91819833Y-71088208D01*
X91819833Y-70834208D01*
X92073833Y-70834208D01*
X92327833Y-70834208D01*
X92327833Y-71088208D01*
G37*
G36*
X96391833Y-69564208D02*
G01*
X96391833Y-71342208D01*
X94613833Y-71342208D01*
X92835833Y-71342208D01*
X92835833Y-70834208D01*
X93343833Y-70834208D01*
X94613833Y-70834208D01*
X95883833Y-70834208D01*
X95883833Y-69564208D01*
X95883833Y-68294208D01*
X94613833Y-68294208D01*
X93343833Y-68294208D01*
X93343833Y-69564208D01*
X93343833Y-70834208D01*
X92835833Y-70834208D01*
X92835833Y-69564208D01*
X92835833Y-67786208D01*
X94613833Y-67786208D01*
X96391833Y-67786208D01*
X96391833Y-69564208D01*
G37*
G36*
X86231833Y-68548208D02*
G01*
X86231833Y-68802208D01*
X85977833Y-68802208D01*
X85723833Y-68802208D01*
X85723833Y-68548208D01*
X85723833Y-68294208D01*
X85977833Y-68294208D01*
X86231833Y-68294208D01*
X86231833Y-68548208D01*
G37*
G36*
X84199833Y-80740208D02*
G01*
X84199833Y-81502208D01*
X83437833Y-81502208D01*
X82675833Y-81502208D01*
X82675833Y-80740208D01*
X82675833Y-79978208D01*
X83437833Y-79978208D01*
X84199833Y-79978208D01*
X84199833Y-80740208D01*
G37*
G36*
X90295833Y-77438208D02*
G01*
X90295833Y-78454208D01*
X90041833Y-78454208D01*
X89787833Y-78454208D01*
X89787833Y-78962208D01*
X89787833Y-79470208D01*
X89533833Y-79470208D01*
X89279833Y-79470208D01*
X89279833Y-79724208D01*
X89279833Y-79978208D01*
X89025833Y-79978208D01*
X88771833Y-79978208D01*
X88771833Y-80232208D01*
X88771833Y-80486208D01*
X88517833Y-80486208D01*
X88263833Y-80486208D01*
X88263833Y-80232208D01*
X88263833Y-79978208D01*
X88517833Y-79978208D01*
X88771833Y-79978208D01*
X88771833Y-79724208D01*
X88771833Y-79470208D01*
X89025833Y-79470208D01*
X89279833Y-79470208D01*
X89279833Y-79216208D01*
X89279833Y-78962208D01*
X89025833Y-78962208D01*
X88771833Y-78962208D01*
X88771833Y-78708208D01*
X88771833Y-78454208D01*
X89025833Y-78454208D01*
X89279833Y-78454208D01*
X89279833Y-78200208D01*
X89279833Y-77946208D01*
X89025833Y-77946208D01*
X88771833Y-77946208D01*
X88771833Y-77438208D01*
X88771833Y-76930208D01*
X89025833Y-76930208D01*
X89279833Y-76930208D01*
X89279833Y-77184208D01*
X89279833Y-77438208D01*
X89533833Y-77438208D01*
X89787833Y-77438208D01*
X89787833Y-76930208D01*
X89787833Y-76422208D01*
X90041833Y-76422208D01*
X90295833Y-76422208D01*
X90295833Y-77438208D01*
G37*
G36*
X91311833Y-79724208D02*
G01*
X91311833Y-79978208D01*
X91057833Y-79978208D01*
X90803833Y-79978208D01*
X90803833Y-80232208D01*
X90803833Y-80486208D01*
X90549833Y-80486208D01*
X90295833Y-80486208D01*
X90295833Y-80232208D01*
X90295833Y-79978208D01*
X90041833Y-79978208D01*
X89787833Y-79978208D01*
X89787833Y-79724208D01*
X89787833Y-79470208D01*
X90549833Y-79470208D01*
X91311833Y-79470208D01*
X91311833Y-79724208D01*
G37*
G36*
X92327833Y-73628208D02*
G01*
X92327833Y-73882208D01*
X92581833Y-73882208D01*
X92835833Y-73882208D01*
X92835833Y-74136208D01*
X92835833Y-74390208D01*
X92327833Y-74390208D01*
X91819833Y-74390208D01*
X91819833Y-74644208D01*
X91819833Y-74898208D01*
X92073833Y-74898208D01*
X92327833Y-74898208D01*
X92327833Y-75152208D01*
X92327833Y-75406208D01*
X92073833Y-75406208D01*
X91819833Y-75406208D01*
X91819833Y-75660208D01*
X91819833Y-75914208D01*
X92073833Y-75914208D01*
X92327833Y-75914208D01*
X92327833Y-76168208D01*
X92327833Y-76422208D01*
X92581833Y-76422208D01*
X92835833Y-76422208D01*
X92835833Y-76676208D01*
X92835833Y-76930208D01*
X92327833Y-76930208D01*
X91819833Y-76930208D01*
X91819833Y-77184208D01*
X91819833Y-77438208D01*
X91565833Y-77438208D01*
X91311833Y-77438208D01*
X91311833Y-77692208D01*
X91311833Y-77946208D01*
X91057833Y-77946208D01*
X90803833Y-77946208D01*
X90803833Y-77438208D01*
X90803833Y-76930208D01*
X91311833Y-76930208D01*
X91819833Y-76930208D01*
X91819833Y-76676208D01*
X91819833Y-76422208D01*
X91311833Y-76422208D01*
X90803833Y-76422208D01*
X90803833Y-76168208D01*
X90803833Y-75914208D01*
X91057833Y-75914208D01*
X91311833Y-75914208D01*
X91311833Y-75406208D01*
X91311833Y-74898208D01*
X91057833Y-74898208D01*
X90803833Y-74898208D01*
X90803833Y-74390208D01*
X90803833Y-73882208D01*
X91057833Y-73882208D01*
X91311833Y-73882208D01*
X91311833Y-74136208D01*
X91311833Y-74390208D01*
X91565833Y-74390208D01*
X91819833Y-74390208D01*
X91819833Y-73882208D01*
X91819833Y-73374208D01*
X92073833Y-73374208D01*
X92327833Y-73374208D01*
X92327833Y-73628208D01*
G37*
G36*
X94359833Y-76676208D02*
G01*
X94359833Y-76930208D01*
X94105833Y-76930208D01*
X93851833Y-76930208D01*
X93851833Y-76676208D01*
X93851833Y-76422208D01*
X94105833Y-76422208D01*
X94359833Y-76422208D01*
X94359833Y-76676208D01*
G37*
G36*
X89787833Y-75660208D02*
G01*
X89787833Y-75914208D01*
X89533833Y-75914208D01*
X89279833Y-75914208D01*
X89279833Y-75660208D01*
X89279833Y-75406208D01*
X89533833Y-75406208D01*
X89787833Y-75406208D01*
X89787833Y-75660208D01*
G37*
G36*
X85723833Y-74390208D02*
G01*
X85723833Y-74898208D01*
X85469833Y-74898208D01*
X85215833Y-74898208D01*
X85215833Y-74644208D01*
X85215833Y-74390208D01*
X84961833Y-74390208D01*
X84707833Y-74390208D01*
X84707833Y-74136208D01*
X84707833Y-73882208D01*
X85215833Y-73882208D01*
X85723833Y-73882208D01*
X85723833Y-74390208D01*
G37*
G36*
X85215833Y-73120208D02*
G01*
X85215833Y-73374208D01*
X84961833Y-73374208D01*
X84707833Y-73374208D01*
X84707833Y-73628208D01*
X84707833Y-73882208D01*
X84453833Y-73882208D01*
X84199833Y-73882208D01*
X84199833Y-73628208D01*
X84199833Y-73374208D01*
X84453833Y-73374208D01*
X84707833Y-73374208D01*
X84707833Y-73120208D01*
X84707833Y-72866208D01*
X84961833Y-72866208D01*
X85215833Y-72866208D01*
X85215833Y-73120208D01*
G37*
G36*
X90803833Y-73120208D02*
G01*
X90803833Y-73374208D01*
X90549833Y-73374208D01*
X90295833Y-73374208D01*
X90295833Y-74136208D01*
X90295833Y-74898208D01*
X89787833Y-74898208D01*
X89279833Y-74898208D01*
X89279833Y-74644208D01*
X89279833Y-74390208D01*
X89533833Y-74390208D01*
X89787833Y-74390208D01*
X89787833Y-73882208D01*
X89787833Y-73374208D01*
X90041833Y-73374208D01*
X90295833Y-73374208D01*
X90295833Y-73120208D01*
X90295833Y-72866208D01*
X90549833Y-72866208D01*
X90803833Y-72866208D01*
X90803833Y-73120208D01*
G37*
G36*
X86231833Y-73120208D02*
G01*
X86231833Y-73374208D01*
X85977833Y-73374208D01*
X85723833Y-73374208D01*
X85723833Y-73120208D01*
X85723833Y-72866208D01*
X85977833Y-72866208D01*
X86231833Y-72866208D01*
X86231833Y-73120208D01*
G37*
G36*
X90295833Y-71088208D02*
G01*
X90295833Y-71342208D01*
X90041833Y-71342208D01*
X89787833Y-71342208D01*
X89787833Y-71088208D01*
X89787833Y-70834208D01*
X90041833Y-70834208D01*
X90295833Y-70834208D01*
X90295833Y-71088208D01*
G37*
G36*
X90803833Y-69564208D02*
G01*
X90803833Y-69818208D01*
X90549833Y-69818208D01*
X90295833Y-69818208D01*
X90295833Y-69564208D01*
X90295833Y-69310208D01*
X90549833Y-69310208D01*
X90803833Y-69310208D01*
X90803833Y-69564208D01*
G37*
G36*
X93343833Y-79216208D02*
G01*
X93343833Y-79470208D01*
X93089833Y-79470208D01*
X92835833Y-79470208D01*
X92835833Y-79216208D01*
X92835833Y-78962208D01*
X93089833Y-78962208D01*
X93343833Y-78962208D01*
X93343833Y-79216208D01*
G37*
G36*
X84199833Y-69564208D02*
G01*
X84199833Y-70326208D01*
X83437833Y-70326208D01*
X82675833Y-70326208D01*
X82675833Y-69564208D01*
X82675833Y-68802208D01*
X83437833Y-68802208D01*
X84199833Y-68802208D01*
X84199833Y-69564208D01*
G37*
G36*
X95375833Y-69564208D02*
G01*
X95375833Y-70326208D01*
X94613833Y-70326208D01*
X93851833Y-70326208D01*
X93851833Y-69564208D01*
X93851833Y-68802208D01*
X94613833Y-68802208D01*
X95375833Y-68802208D01*
X95375833Y-69564208D01*
G37*
%TO.C,SDA*%
D14*
X117800000Y-72800000D02*
X120200000Y-72800000D01*
X117800000Y-75200000D02*
X117800000Y-72800000D01*
X120200000Y-72800000D02*
X120200000Y-75200000D01*
X120200000Y-75200000D02*
X117800000Y-75200000D01*
%TO.C,SCL*%
X114700000Y-95200000D02*
X112300000Y-95200000D01*
X114700000Y-92800000D02*
X114700000Y-95200000D01*
X112300000Y-95200000D02*
X112300000Y-92800000D01*
X112300000Y-92800000D02*
X114700000Y-92800000D01*
%TO.C,FD*%
X112300000Y-87800000D02*
X114700000Y-87800000D01*
X112300000Y-90200000D02*
X112300000Y-87800000D01*
X114700000Y-87800000D02*
X114700000Y-90200000D01*
X114700000Y-90200000D02*
X112300000Y-90200000D01*
%TO.C,C1*%
X109900000Y-81863748D02*
X109900000Y-82386252D01*
X111370000Y-81863748D02*
X111370000Y-82386252D01*
%TO.C,D1*%
X109135000Y-78047500D02*
X111995000Y-78047500D01*
X111995000Y-76127500D02*
X109135000Y-76127500D01*
X111995000Y-78047500D02*
X111995000Y-76127500D01*
%TO.C,NT3H2111W1*%
X102375000Y-78827500D02*
X102645000Y-78827500D01*
X102375000Y-84347500D02*
X102375000Y-78827500D01*
X102645000Y-84347500D02*
X102375000Y-84347500D01*
X107625000Y-78827500D02*
X107895000Y-78827500D01*
X107895000Y-78827500D02*
X107895000Y-84347500D01*
X107895000Y-84347500D02*
X107625000Y-84347500D01*
X102635000Y-85177500D02*
X102165000Y-85517500D01*
X102165000Y-84837500D01*
X102635000Y-85177500D01*
G36*
X102635000Y-85177500D02*
G01*
X102165000Y-85517500D01*
X102165000Y-84837500D01*
X102635000Y-85177500D01*
G37*
%TO.C,R1*%
X112900000Y-79360436D02*
X112900000Y-79814564D01*
X114370000Y-79360436D02*
X114370000Y-79814564D01*
%TD*%
M02*
